M48
; DRILL file {KiCad 7.0.7} date 2024 March 10, Sunday 20:02:01
; FORMAT={-:-/ absolute / metric / decimal}
; #@! TF.CreationDate,2024-03-10T20:02:01-05:00
; #@! TF.GenerationSoftware,Kicad,Pcbnew,7.0.7
; #@! TF.FileFunction,Plated,1,2,PTH
FMAT,2
METRIC
; #@! TA.AperFunction,Plated,PTH,ViaDrill
T1C0.250
%
G90
G05
T1
X45.06Y-47.57
X45.22Y-52.41
X45.25Y-50.25
X45.84Y-49.64
X46.286Y-50.236
X46.48Y-48.82
X46.56Y-56.02
X46.95Y-52.35
X47.14Y-48.49
X47.28Y-45.14
X47.456Y-51.345
X47.832Y-48.226
X48.245Y-51.407
X48.254Y-47.655
X48.5Y-53.85
X48.621Y-45.946
X49.5Y-54.65
X49.75Y-46.34
X49.94Y-56.06
X50.0Y-53.85
X50.07Y-44.63
X50.55Y-49.46
X50.999Y-46.164
X51.454Y-47.165
X52.02Y-46.65
X52.075Y-48.0
X52.5Y-53.4
X52.775Y-48.275
X53.8Y-49.9
X53.85Y-48.65
X54.089Y-52.739
X54.1Y-51.25
X56.45Y-49.8
T0
M30
